<?xml version="1.0" encoding="utf-8"?>
<!-- Generator: Adobe Illustrator 15.0.0, SVG Export Plug-In . SVG Version: 6.00 Build 0)  -->
<!DOCTYPE svg PUBLIC "-//W3C//DTD SVG 1.0//EN" "http://www.w3.org/TR/2001/REC-SVG-20010904/DTD/svg10.dtd">
<svg version="1.0" xmlns="http://www.w3.org/2000/svg" xmlns:xlink="http://www.w3.org/1999/xlink" x="0px" y="0px"
	 width="37.604px" height="90.971px" viewBox="0 0 37.604 90.971" enable-background="new 0 0 37.604 90.971" xml:space="preserve">
<g id="Layer_13">
	
		<ellipse transform="matrix(-0.6019 -0.7986 0.7986 -0.6019 39.3284 29.2361)" fill="none" stroke="#000000" stroke-width="0.45" stroke-miterlimit="3" cx="26.952" cy="4.815" rx="4.677" ry="4.432"/>
	<path fill="#FFFFFF" d="M23.346,3.699c-0.083,0.398-0.088,1.063,0.016,1.473c0.103,0.41,0.295,0.9,0.295,0.9l0.711-0.237
		c0,0-0.182-0.602-0.241-1.077c-0.055-0.426-0.067-0.504-0.046-1.072C24.102,3.128,23.428,3.301,23.346,3.699z"/>
	<path fill="#FFFFFF" d="M24.008,6.846l0.693-0.332c0,0,0.174,0.401,0.55,0.718c0.423,0.357,1.141,0.713,1.313,0.79
		c0.228,0.104,0.968,0.371,0.968,0.371s0.132-0.001,0.359,0.101c0.229,0.103-1.239,0.299-1.853,0.049
		c-0.612-0.249-1.129-0.571-1.424-0.836C24.319,7.442,24.008,6.846,24.008,6.846z"/>
	
		<ellipse transform="matrix(-0.6019 -0.7986 0.7986 -0.6019 22.9221 55.1547)" fill="none" stroke="#000000" stroke-width="0.25" stroke-miterlimit="3" cx="25.209" cy="21.864" rx="1.527" ry="1.446"/>
	<path fill="#FFFFFF" d="M24.123,21.487c-0.028,0.118-0.037,0.315-0.009,0.437c0.027,0.121,0.081,0.266,0.081,0.266l0.218-0.076
		c0,0-0.05-0.181-0.063-0.319c-0.014-0.127-0.017-0.149-0.005-0.319C24.357,21.31,24.151,21.367,24.123,21.487z"/>
	<path fill="#FFFFFF" d="M24.331,22.448l0.223-0.104c0,0,0.058,0.13,0.179,0.233c0.139,0.116,0.371,0.234,0.426,0.26
		c0.074,0.034,0.314,0.123,0.314,0.123s0.042-0.001,0.116,0.034c0.073,0.033-0.399,0.094-0.598,0.01
		c-0.198-0.082-0.366-0.188-0.462-0.274C24.434,22.643,24.331,22.448,24.331,22.448z"/>
	
		<ellipse transform="matrix(-0.6019 -0.7986 0.7986 -0.6019 21.3995 69.1281)" fill="none" stroke="#000000" stroke-width="0.25" stroke-miterlimit="3" cx="27.931" cy="29.23" rx="1.527" ry="1.446"/>
	<path fill="#FFFFFF" d="M26.845,28.854c-0.028,0.118-0.037,0.315-0.009,0.437c0.027,0.121,0.081,0.266,0.081,0.266l0.218-0.076
		c0,0-0.05-0.181-0.063-0.319c-0.014-0.127-0.017-0.149-0.005-0.319C27.079,28.676,26.873,28.733,26.845,28.854z"/>
	<path fill="#FFFFFF" d="M27.053,29.814l0.223-0.104c0,0,0.058,0.13,0.179,0.233c0.139,0.116,0.371,0.234,0.426,0.26
		c0.074,0.034,0.314,0.123,0.314,0.123s0.042-0.001,0.116,0.034c0.073,0.033-0.399,0.094-0.598,0.01
		c-0.198-0.082-0.366-0.188-0.462-0.274C27.155,30.009,27.053,29.814,27.053,29.814z"/>
	
		<ellipse transform="matrix(-0.6017 -0.7987 0.7987 -0.6017 17.632 63.9718)" fill="none" stroke="#000000" stroke-width="0.25" stroke-miterlimit="3" cx="24.766" cy="27.59" rx="0.54" ry="0.496"/>
	
		<ellipse transform="matrix(-0.6016 -0.7988 0.7988 -0.6016 26.7453 60.716)" fill="none" stroke="#000000" stroke-width="0.25" stroke-miterlimit="3" cx="28.515" cy="23.688" rx="0.651" ry="0.597"/>
	
		<ellipse transform="matrix(-0.6019 -0.7986 0.7986 -0.6019 39.827 48.1681)" fill="none" stroke="#000000" stroke-width="0.25" stroke-miterlimit="3" cx="31.92" cy="14.157" rx="1.527" ry="1.446"/>
	<path fill="#FFFFFF" d="M30.834,13.78c-0.028,0.118-0.037,0.315-0.009,0.437c0.027,0.121,0.081,0.266,0.081,0.266l0.218-0.076
		c0,0-0.05-0.181-0.063-0.319c-0.014-0.127-0.017-0.149-0.005-0.319C31.068,13.603,30.862,13.66,30.834,13.78z"/>
	<path fill="#FFFFFF" d="M31.042,14.741l0.223-0.104c0,0,0.058,0.13,0.179,0.233c0.139,0.116,0.371,0.234,0.426,0.26
		c0.074,0.034,0.314,0.123,0.314,0.123s0.042-0.001,0.116,0.034c0.073,0.033-0.399,0.094-0.598,0.01
		c-0.198-0.082-0.366-0.188-0.462-0.274C31.145,14.936,31.042,14.741,31.042,14.741z"/>
	
		<ellipse transform="matrix(-0.6022 -0.7984 0.7984 -0.6022 32.8112 46.7596)" fill="none" stroke="#000000" stroke-width="0.25" stroke-miterlimit="3" cx="28.056" cy="15.205" rx="0.761" ry="0.699"/>
	
		<ellipse transform="matrix(-0.6018 -0.7987 0.7987 -0.6018 27.1242 33.1516)" fill="none" stroke="#000000" stroke-width="0.25" stroke-miterlimit="3" cx="21.827" cy="9.813" rx="0.531" ry="0.487"/>
	
		<ellipse transform="matrix(-0.6018 -0.7986 0.7986 -0.6018 26.9449 40.9677)" fill="none" stroke="#000000" stroke-width="0.3" stroke-miterlimit="3" cx="23.686" cy="13.767" rx="1.994" ry="1.908"/>
	<path fill="#FFFFFF" d="M22.261,13.28c-0.039,0.154-0.051,0.412-0.015,0.572c0.035,0.158,0.104,0.348,0.104,0.348l0.287-0.101
		c0,0-0.063-0.237-0.08-0.419c-0.018-0.167-0.021-0.196-0.005-0.419C22.57,13.045,22.299,13.122,22.261,13.28z"/>
	<path fill="#FFFFFF" d="M22.527,14.538l0.295-0.139c0,0,0.074,0.17,0.232,0.305c0.183,0.152,0.486,0.306,0.558,0.338
		c0.097,0.045,0.412,0.159,0.412,0.159s0.057-0.001,0.153,0.045c0.096,0.042-0.525,0.126-0.786,0.017
		c-0.261-0.107-0.479-0.246-0.605-0.357C22.662,14.792,22.527,14.538,22.527,14.538z"/>
	
		<ellipse transform="matrix(-0.6019 -0.7986 0.7986 -0.6019 34.9071 50.8186)" fill="none" stroke="#000000" stroke-width="0.2" stroke-miterlimit="3" cx="30.121" cy="16.708" rx="0.501" ry="0.46"/>
	
		<ellipse transform="matrix(-0.6019 -0.7986 0.7986 -0.6019 23.7211 96.8558)" fill="none" stroke="#000000" stroke-width="0.25" stroke-miterlimit="3" cx="36.003" cy="42.515" rx="1.527" ry="1.446"/>
	<path fill="#FFFFFF" d="M34.917,42.139c-0.028,0.118-0.037,0.315-0.009,0.437c0.027,0.121,0.081,0.266,0.081,0.266l0.218-0.076
		c0,0-0.05-0.181-0.063-0.319c-0.014-0.127-0.017-0.149-0.005-0.319C35.151,41.961,34.945,42.019,34.917,42.139z"/>
	<path fill="#FFFFFF" d="M35.125,43.1l0.223-0.104c0,0,0.058,0.13,0.179,0.233c0.139,0.116,0.371,0.234,0.426,0.26
		c0.074,0.034,0.314,0.123,0.314,0.123s0.042-0.001,0.116,0.034c0.073,0.033-0.399,0.094-0.598,0.01
		c-0.198-0.082-0.366-0.188-0.462-0.274C35.228,43.294,35.125,43.1,35.125,43.1z"/>
	
		<ellipse transform="matrix(-0.6022 -0.7984 0.7984 -0.6022 16.712 95.4538)" fill="none" stroke="#000000" stroke-width="0.25" stroke-miterlimit="3" cx="32.139" cy="43.563" rx="0.761" ry="0.699"/>
	
		<ellipse transform="matrix(-0.6019 -0.7986 0.7986 -0.6019 18.8006 99.5057)" fill="none" stroke="#000000" stroke-width="0.2" stroke-miterlimit="3" cx="34.204" cy="45.066" rx="0.501" ry="0.46"/>
	
		<ellipse transform="matrix(-0.6284 0.7779 -0.7779 -0.6284 37.2091 73.5262)" fill="none" stroke="#000000" stroke-width="0.25" stroke-miterlimit="3" cx="1.044" cy="45.65" rx="0.761" ry="0.698"/>
	
		<ellipse transform="matrix(-0.6292 0.7772 -0.7772 -0.6292 36.9025 68.9593)" fill="none" stroke="#000000" stroke-width="0.2" stroke-miterlimit="3" cx="2.002" cy="43.282" rx="0.501" ry="0.46"/>
</g>
<g id="Layer_12">
</g>
<g id="Layer_4">
</g>
<g id="Layer_3">
</g>
<g id="Layer_2">
</g>
<g id="Layer_8">
</g>
<g id="Layer_5">
</g>
<g id="Layer_7">
</g>
<g id="Layer_6">
</g>
<g id="Layer_9">
</g>
<g id="Layer_11">
</g>
<g id="Layer_10">
	<path fill="#428E35" stroke="#000000" stroke-width="0.5" stroke-miterlimit="3" d="M11.433,76.162
		c1.566-1.978,3.174-4.039,4.314-6.299c1.402-2.775-3.328-6.635,1.539-8.722c4.609-1.976-0.494-8.556-2.01-10.651
		c-1.803-2.49,4.156-5.483,4.156-8.453c0-1.566-0.512-2.67-0.875-4.125c-0.354-1.408-3.172-0.612-3.625-2.125
		c-0.857-2.858,5.133-2.388,3.646-5.748c-0.227-0.515-4.104-4.219-2.771-4.752c1.41-0.564,1.273-1.796,2.875,0.125
		c1.252,1.504,3.164,3.601,3,5.75c-0.137,1.77,2.713,1.233,3.375,2.375c0.883,1.524-0.242,2.908-1.627,3.527
		c-1.801,0.806-1.291,1.977-1.463,3.874c-0.346,3.797,6.115,6.139,2.881,9.48c-2.902,2.996-4.764,3.542-3.781,8.251
		c0.643,3.086,5.01,6.026,0.793,8.707c-2.283,1.451-3.338,4.417-4.303,6.785c-1.828,4.483,3.529,7.52,1.75,11.375
		c-1.672,3.619-6.996,3.511-8.92,0.643C8.29,83.048,9.642,79.072,11.433,76.162"/>
	<g>
		<path fill="#57AF48" stroke="#000000" stroke-width="0.5" stroke-miterlimit="3" d="M9.364,80.882
			c-0.666-0.872-1.303-1.771-1.895-2.7c-0.766-1.205-1.627-2.353-0.59-3.656c0.574-0.72,0.33-1.422-0.076-2.188
			c-0.219-0.413-0.484-0.828-0.834-1.132c-0.275-0.238-0.635-0.317-0.881-0.603c-0.604-0.695-0.311-1.823-0.217-2.643
			c0.109-0.949,0.182-1.761,0.791-2.521c0.506-0.635,1.529-1.273,1.572-2.184c0.041-0.874-0.992-1.713-1.609-2.183
			c-1.434-1.093-1.559-2.87-1.002-4.549c0.232-0.699,0.303-1.066,1.021-1.306c0.779-0.259,1.385-0.366,1.627-1.254
			c0.17-0.624-0.861-1.067-1.297-1.266c-0.703-0.321-1.131-0.754-1.209-1.578c-0.096-1.049,2.809-2.936,1.77-3.713
			c-0.404-0.303-0.592-0.843-1.168-0.446c-0.918,0.63-1.773,2.034-2.209,3.074c-0.27,0.641-0.039,1.635-0.686,2.005
			c-0.625,0.357-1.498,0.307-1.814,1.08c-0.383,0.934,0.463,1.793,1.246,2.112c0.789,0.322,0.738,0.686,0.762,1.568
			c0.02,0.77,0.199,1.535-0.057,2.282c-0.367,1.068-1.188,1.58-1.885,2.382c-1.48,1.703,0.875,3.038,1.914,4.091
			c0.918,0.928,0.795,1.86,0.725,3.197c-0.035,0.661-0.178,1.082-0.6,1.562c-0.648,0.738-1.039,1.808-1.109,2.799
			c-0.043,0.605,0.055,1.367,0.621,1.688c0.381,0.218,0.738,0.425,1.025,0.771c0.574,0.694,1.402,1.646,1.689,2.531
			c0.348,1.081,1.16,2.356,1.104,3.516c-0.021,0.487-0.359,0.913-0.59,1.314c-0.451,0.784-0.879,1.615-1.109,2.503
			c-0.375,1.446,0.27,2.195,1.451,2.818c0.824,0.435,2.326,1.099,3.207,0.471c1.223-0.87,1.787-2.781,1.596-4.223
			c-0.111-0.843-0.318-1.706-0.654-2.483C9.813,81.604,9.493,81.337,9.364,80.882"/>
	</g>
	<path fill="#5FBB50" stroke="#000000" stroke-width="0.5" stroke-miterlimit="3" d="M8.194,80.067
		c0.746-1.861,1.51-3.802,1.979-5.89c0.576-2.564-2.576-5.726,0.113-7.885c2.547-2.045-1.074-7.615-2.164-9.395
		c-1.293-2.117,1.959-5.151,1.688-7.805c-0.143-1.399-0.547-2.355-0.895-3.633c-0.338-1.237-1.934-0.355-2.34-1.68
		c-0.768-2.502,2.82-2.443,1.635-5.356c-0.182-0.446-2.816-3.521-2.076-4.077c0.783-0.59,0.59-1.682,1.713-0.063
		c0.879,1.268,2.203,3.025,2.301,4.954c0.082,1.591,1.719,0.938,2.215,1.919c0.662,1.309,0.123,2.613-0.641,3.25
		c-0.992,0.828-0.582,1.845-0.512,3.55c0.143,3.413,4.182,5.115,2.572,8.297c-1.443,2.853-2.496,3.452-1.484,7.6
		c0.662,2.719,3.516,5.082,1.266,7.732c-1.219,1.435-1.572,4.148-1.926,6.322c-0.672,4.116,2.775,6.505,2.074,10.058
		c-0.658,3.335-3.818,3.561-5.219,1.114C6.964,86.409,7.401,82.775,8.194,80.067"/>
	<g>
		<path fill="#4C9E3E" stroke="#000000" stroke-width="0.5" stroke-miterlimit="3" d="M19.325,80.444
			c0.803-0.726,1.586-1.482,2.33-2.28c0.965-1.033,2.01-1.99,1.289-3.468c-0.398-0.816-0.025-1.457,0.51-2.128
			c0.289-0.363,0.625-0.718,1.016-0.949c0.309-0.18,0.662-0.188,0.953-0.421c0.707-0.563,0.656-1.726,0.732-2.547
			c0.088-0.95,0.182-1.761-0.242-2.622c-0.352-0.72-1.191-1.543-1.049-2.443c0.137-0.864,1.281-1.486,1.959-1.828
			c1.572-0.794,2.047-2.511,1.855-4.264c-0.078-0.729-0.072-1.104-0.703-1.476c-0.686-0.403-1.236-0.627-1.287-1.543
			c-0.035-0.645,1.027-0.879,1.479-0.99c0.73-0.178,1.221-0.52,1.457-1.312c0.303-1.009-2.064-3.419-0.926-3.979
			c0.441-0.22,0.727-0.712,1.191-0.212c0.74,0.794,1.27,2.335,1.473,3.438c0.127,0.679-0.291,1.609,0.246,2.096
			c0.52,0.472,1.355,0.591,1.498,1.408c0.176,0.989-0.797,1.668-1.6,1.83c-0.811,0.164-0.836,0.529-1.035,1.388
			c-0.172,0.752-0.494,1.468-0.402,2.249c0.133,1.116,0.805,1.776,1.305,2.696c1.057,1.954-1.434,2.809-2.627,3.64
			c-1.053,0.731-1.125,1.668-1.326,2.992c-0.098,0.655-0.047,1.094,0.254,1.646c0.465,0.849,0.621,1.972,0.49,2.957
			c-0.082,0.601-0.326,1.328-0.926,1.533c-0.402,0.141-0.783,0.274-1.125,0.56c-0.68,0.568-1.654,1.341-2.1,2.153
			c-0.545,0.992-1.568,2.085-1.748,3.23c-0.076,0.482,0.156,0.965,0.295,1.403c0.27,0.854,0.508,1.752,0.547,2.666
			c0.064,1.488-0.695,2.099-1.936,2.481c-0.865,0.267-2.418,0.627-3.123-0.158c-0.982-1.089-1.133-3.069-0.664-4.444
			c0.275-0.806,0.643-1.61,1.115-2.308C18.757,81.065,19.112,80.866,19.325,80.444"/>
	</g>
</g>
</svg>
